<svg xmlns="http://www.w3.org/2000/svg" width="500" height="500" viewBox="0 0 500 500">
<g>
<path d="M 242.89 331.25 C242.31,329.74 239.66,322.65 237.01,315.50 C222.77,277.06 219.98,269.65 219.64,269.31 C219.44,269.11 216.48,277.62 213.06,288.22 C209.64,298.82 205.81,310.65 204.55,314.50 L 202.26 321.50 L 190.90 321.50 L 179.55 321.50 L 170.80 293.50 C165.98,278.10 162.04,265.16 162.02,264.75 C162.01,264.34 166.47,264.00 171.93,264.00 L 181.86 264.00 L 185.93 276.90 C188.17,284.00 190.00,290.30 190.00,290.90 C190.00,291.51 190.38,292.00 190.84,292.00 C191.31,292.00 193.66,285.70 196.07,278.00 L 200.45 264.00 L 216.09 264.00 L 231.73 264.00 L 234.98 272.75 C240.08,286.48 249.00,313.20 249.00,314.73 C249.00,317.57 250.80,314.87 251.95,310.29 C252.60,307.68 256.58,296.20 260.77,284.77 L 268.40 264.00 L 283.97 264.00 L 299.55 264.00 L 303.93 278.00 C306.34,285.70 308.69,292.00 309.16,292.00 C309.62,292.00 310.00,291.51 310.00,290.90 C310.00,290.30 311.83,284.00 314.07,276.90 L 318.14 264.00 L 328.09 264.00 L 338.04 264.00 L 337.37 266.68 C336.99,268.16 333.03,281.09 328.55,295.43 L 320.41 321.50 L 309.01 321.50 L 297.61 321.50 L 289.72 297.00 C285.39,283.52 281.51,271.38 281.10,270.01 C280.26,267.18 281.07,265.26 264.89,308.74 L 255.50 333.97 L 249.73 333.99 C244.34,334.00 243.88,333.81 242.89,331.25 ZM 129.24 241.00 L 126.21 228.89 L 128.83 229.19 C131.25,229.48 131.60,230.16 133.38,238.00 C135.26,246.27 135.34,246.41 136.23,243.00 C139.54,230.26 140.10,229.00 142.42,229.00 C144.44,229.00 144.97,230.00 147.05,237.75 L 149.40 246.50 L 151.35 237.75 C153.13,229.79 153.52,229.00 155.65,229.00 C158.56,229.00 158.55,229.14 155.22,242.00 C152.57,252.25 152.43,252.51 149.49,252.80 C146.48,253.09 146.47,253.08 144.43,244.40 L 142.37 235.71 L 140.39 244.11 C138.47,252.24 138.32,252.51 135.34,252.80 L 132.28 253.11 L 129.24 241.00 ZM 163.00 241.00 L 163.00 229.00 L 165.50 229.00 L 168.00 229.00 L 168.00 241.00 L 168.00 253.00 L 165.50 253.00 L 163.00 253.00 L 163.00 241.00 ZM 175.00 241.00 L 175.00 229.00 L 177.46 229.00 C179.89,229.00 179.93,229.13 180.21,238.75 L 180.50 248.50 L 185.25 248.80 C189.18,249.06 190.00,249.44 190.00,251.05 C190.00,252.81 189.26,253.00 182.50,253.00 L 175.00 253.00 L 175.00 241.00 ZM 195.00 241.00 L 195.00 229.00 L 197.50 229.00 L 200.00 229.00 L 200.00 239.00 L 200.00 249.00 L 205.00 249.00 C209.33,249.00 210.00,249.27 210.00,251.00 C210.00,252.82 209.33,253.00 202.50,253.00 L 195.00 253.00 L 195.00 241.00 ZM 226.58 242.25 C224.61,236.33 223.00,230.93 223.00,230.25 C223.00,229.56 224.05,229.00 225.34,229.00 C227.42,229.00 227.94,229.94 230.06,237.50 C231.37,242.18 232.68,246.00 232.97,246.00 C233.27,246.00 234.64,242.29 236.04,237.75 C238.31,230.36 238.84,229.47 241.20,229.19 L 243.83 228.88 L 241.98 234.69 C236.39,252.23 236.01,253.00 232.99,253.00 C230.29,253.00 230.01,252.54 226.58,242.25 ZM 248.00 241.00 L 248.00 229.00 L 250.50 229.00 L 253.00 229.00 L 253.00 241.00 L 253.00 253.00 L 250.50 253.00 L 248.00 253.00 L 248.00 241.00 ZM 258.20 251.75 C258.39,251.06 260.11,245.65 262.02,239.73 L 265.50 228.96 L 268.86 229.23 C272.19,229.50 272.27,229.62 276.11,240.42 C278.25,246.43 280.00,251.72 280.00,252.17 C280.00,252.63 278.92,253.00 277.60,253.00 C275.83,253.00 274.92,252.21 274.15,250.00 C273.22,247.32 272.66,247.00 269.00,247.00 C265.34,247.00 264.78,247.32 263.85,250.00 C263.07,252.24 262.18,253.00 260.33,253.00 C258.83,253.00 257.99,252.51 258.20,251.75 ZM 271.60 241.41 C271.27,240.53 270.72,238.73 270.39,237.41 C269.61,234.33 268.39,234.33 267.61,237.41 C267.28,238.73 266.73,240.53 266.40,241.41 C265.92,242.66 266.47,243.00 269.00,243.00 C271.53,243.00 272.08,242.66 271.60,241.41 ZM 289.30 251.99 C286.24,250.75 284.00,245.93 284.00,240.57 C284.00,236.97 284.60,235.36 286.92,232.77 C289.60,229.77 290.32,229.50 295.83,229.50 C302.37,229.50 303.35,229.91 302.45,232.28 C302.01,233.42 300.62,233.79 297.34,233.67 C293.68,233.53 292.46,233.95 290.91,235.86 C288.73,238.56 288.40,243.80 290.26,246.34 C290.95,247.28 292.86,248.16 294.51,248.28 C297.09,248.47 297.54,248.13 297.82,245.75 C298.07,243.54 297.73,243.00 296.07,243.00 C294.67,243.00 294.00,242.35 294.00,241.00 C294.00,239.30 294.67,239.00 298.50,239.00 L 303.00 239.00 L 303.00 245.38 C303.00,251.16 302.79,251.82 300.75,252.37 C297.57,253.22 291.89,253.03 289.30,251.99 ZM 310.00 241.00 L 310.00 229.00 L 317.00 229.00 C323.33,229.00 324.00,229.19 324.00,231.00 C324.00,232.70 323.33,233.00 319.50,233.00 C315.37,233.00 315.00,233.20 315.00,235.50 C315.00,237.75 315.40,238.00 319.00,238.00 C322.33,238.00 323.00,238.33 323.00,240.00 C323.00,241.67 322.33,242.00 318.94,242.00 C314.95,242.00 314.88,242.07 315.19,245.25 C315.48,248.30 315.76,248.52 319.75,248.81 C323.19,249.06 324.00,249.49 324.00,251.06 C324.00,252.80 323.26,253.00 317.00,253.00 L 310.00 253.00 L 310.00 241.00 ZM 330.00 241.00 L 330.00 229.00 L 333.33 229.00 C336.45,229.00 336.92,229.49 341.06,237.00 C343.49,241.40 345.77,245.00 346.13,245.00 C346.49,245.00 346.76,241.51 346.75,237.25 C346.71,230.08 346.87,229.48 348.86,229.18 C350.95,228.87 351.00,229.16 351.00,240.93 L 351.00 253.00 L 347.71 253.00 C344.68,253.00 344.14,252.47 340.77,246.25 C338.75,242.54 336.42,238.60 335.58,237.50 C334.17,235.66 334.10,235.99 334.66,241.65 C335.43,249.47 334.60,253.00 331.98,253.00 C330.12,253.00 330.00,252.29 330.00,241.00 ZM 358.75 252.31 C357.69,252.03 357.00,250.90 357.00,249.43 C357.00,246.65 356.97,246.66 360.57,248.03 C366.57,250.31 369.37,246.19 363.84,243.20 C356.43,239.20 354.94,234.77 359.75,230.98 C361.91,229.27 363.42,228.91 366.80,229.29 C371.84,229.85 372.27,230.14 371.38,232.45 C370.88,233.75 369.99,234.05 367.87,233.62 C361.69,232.39 359.86,235.87 365.25,238.59 C370.29,241.15 372.00,243.06 372.00,246.15 C372.00,251.65 366.31,254.29 358.75,252.31 ZM 145.61 212.25 C143.86,206.56 141.45,198.80 132.10,168.63 C128.19,156.06 125.00,145.59 125.00,145.38 C125.00,145.17 129.62,145.00 135.27,145.00 L 145.54 145.00 L 156.61 181.00 L 167.69 217.00 L 157.38 217.00 L 147.08 217.00 L 145.61 212.25 ZM 198.29 211.25 C197.08,208.09 191.15,192.23 185.12,176.00 C179.08,159.77 173.83,145.69 173.45,144.70 C172.81,143.06 173.37,142.93 179.99,143.20 L 187.23 143.50 L 195.14 165.00 C209.63,204.36 214.00,216.33 214.00,216.67 C214.00,216.85 210.96,217.00 207.24,217.00 L 200.49 217.00 L 198.29 211.25 ZM 216.00 216.35 C216.00,216.00 218.96,206.44 222.59,195.10 C226.21,183.77 231.27,167.86 233.84,159.75 L 238.50 145.01 L 250.01 145.00 L 261.53 145.00 L 265.20 156.75 C267.22,163.21 272.27,179.07 276.42,192.00 C280.57,204.93 283.97,215.84 283.98,216.25 C283.99,216.66 279.53,217.00 274.06,217.00 L 264.12 217.00 L 257.36 196.00 C253.64,184.45 250.32,175.00 249.98,175.00 C249.64,175.00 246.34,184.45 242.64,196.00 L 235.91 217.00 L 225.96 217.00 C220.48,217.00 216.00,216.71 216.00,216.35 ZM 286.00 216.30 C286.01,215.86 288.50,208.75 291.54,200.50 C294.58,192.25 300.54,175.94 304.79,164.26 L 312.50 143.03 L 319.73 143.01 L 326.96 143.00 L 324.46 149.75 C323.08,153.46 316.89,170.00 310.69,186.50 L 299.44 216.50 L 292.72 216.80 C289.02,216.96 286.00,216.73 286.00,216.30 ZM 333.44 214.25 C333.81,212.74 338.67,196.54 344.24,178.25 L 354.38 145.00 L 364.69 145.00 C370.36,145.00 375.00,145.24 375.00,145.53 C375.00,145.82 372.93,152.68 370.41,160.78 C367.88,168.88 363.57,182.70 360.82,191.50 C358.08,200.30 355.18,209.64 354.38,212.25 L 352.92 217.00 L 342.85 217.00 L 332.78 217.00 L 333.44 214.25 ZM 257.00 110.07 C257.00,104.86 256.68,103.90 254.37,102.07 C252.07,100.27 250.34,100.00 240.97,100.00 C230.33,100.00 230.21,100.03 229.59,102.50 C228.77,105.78 227.54,105.65 224.84,102.00 C223.62,100.35 222.03,99.00 221.31,99.00 C220.59,99.00 220.00,98.45 220.00,97.79 C220.00,97.12 218.11,94.65 215.79,92.29 C212.38,88.81 211.96,88.00 213.54,88.02 C214.62,88.03 217.47,88.94 219.88,90.03 L 224.25 92.02 L 223.64 88.97 C222.66,84.03 225.52,83.93 230.10,88.74 C233.86,92.70 234.06,92.77 238.20,91.84 C240.53,91.32 242.63,90.70 242.86,90.47 C243.83,89.51 240.06,86.52 229.34,79.77 C223.11,75.84 218.00,72.29 218.00,71.87 C218.00,69.50 222.29,70.65 242.64,78.48 C267.30,87.96 265.76,87.72 279.83,84.32 C285.64,82.92 286.53,82.93 290.58,84.48 C299.59,87.92 294.13,92.17 275.60,96.13 L 269.71 97.38 L 265.39 106.69 C262.01,113.97 260.62,116.00 259.03,116.00 C257.22,116.00 257.00,115.37 257.00,110.07 Z" fill="rgba(251,251,251,1)"/>
</g>
</svg>