<svg xmlns="http://www.w3.org/2000/svg" width="500" height="500" viewBox="0 0 500 500">
<g>
<path d="M 228.98 308.05 C222.66,290.99 217.27,277.02 217.00,277.02 C216.73,277.02 213.34,287.02 209.47,299.26 L 202.45 321.50 L 191.01 321.50 L 179.58 321.50 L 169.95 290.75 L 160.32 260.00 L 170.56 260.00 L 180.81 260.00 L 182.98 267.25 C188.71,286.37 190.55,291.97 191.10,291.98 C191.43,291.99 193.91,284.81 196.60,276.01 L 201.50 260.03 L 218.64 260.01 L 235.78 260.00 L 241.83 276.86 C245.16,286.13 248.19,294.90 248.55,296.35 C248.92,297.80 249.53,298.79 249.91,298.56 C250.29,298.32 253.71,289.54 257.51,279.04 L 264.42 259.95 L 281.42 260.23 L 298.42 260.50 L 303.39 276.25 C306.12,284.91 308.62,292.00 308.93,291.99 C309.24,291.99 310.55,288.50 311.82,284.24 C313.10,279.98 315.29,272.79 316.69,268.25 L 319.24 260.00 L 329.12 260.00 C336.37,260.00 338.99,260.33 338.97,261.25 C338.95,261.94 334.77,275.77 329.69,292.00 L 320.44 321.50 L 309.03 321.50 L 297.62 321.50 L 290.88 300.50 C287.18,288.95 283.87,278.60 283.54,277.50 C283.13,276.14 279.13,285.62 271.08,307.00 L 259.22 338.50 L 249.84 338.78 L 240.45 339.07 L 228.98 308.05 ZM 129.72 242.25 C126.45,229.53 126.42,229.00 128.96,229.00 C130.99,229.00 131.24,229.62 134.07,242.00 C134.76,245.02 135.45,247.05 135.60,246.50 C135.76,245.95 136.86,241.79 138.05,237.25 C139.97,229.97 140.49,229.00 142.50,229.00 C144.54,229.00 145.01,229.96 147.07,238.25 L 149.37 247.50 L 151.41 238.25 C153.28,229.78 153.65,229.00 155.81,229.00 C158.49,229.00 158.50,228.94 154.54,244.00 C152.39,252.15 152.19,252.50 149.45,252.50 C146.71,252.50 146.53,252.18 144.49,244.00 L 142.38 235.50 L 141.14 240.50 C137.94,253.35 138.11,253.00 135.21,253.00 C132.59,253.00 132.39,252.60 129.72,242.25 ZM 163.00 241.00 L 163.00 229.00 L 165.50 229.00 L 168.00 229.00 L 168.00 241.00 L 168.00 253.00 L 165.50 253.00 L 163.00 253.00 L 163.00 241.00 ZM 175.00 241.00 L 175.00 229.00 L 177.50 229.00 C180.00,229.00 180.00,229.00 180.00,238.95 L 180.00 248.89 L 184.74 249.20 C188.31,249.42 189.56,249.93 189.81,251.25 C190.11,252.79 189.25,253.00 182.57,253.00 L 175.00 253.00 L 175.00 241.00 ZM 195.00 241.00 L 195.00 229.00 L 197.50 229.00 L 200.00 229.00 L 200.00 239.00 L 200.00 249.00 L 205.00 249.00 C209.33,249.00 210.00,249.27 210.00,251.00 C210.00,252.82 209.33,253.00 202.50,253.00 L 195.00 253.00 L 195.00 241.00 ZM 226.62 241.69 C224.63,235.47 223.00,230.04 223.00,229.62 C223.00,229.20 224.00,229.00 225.21,229.18 C227.02,229.44 227.84,230.88 229.70,236.99 C230.95,241.11 232.24,245.16 232.58,245.99 C232.94,246.87 234.34,243.76 235.97,238.50 C238.23,231.17 239.13,229.44 240.87,229.18 C242.04,229.00 243.00,229.35 243.00,229.95 C243.00,230.55 241.40,235.98 239.45,242.02 C236.04,252.56 235.79,253.00 233.07,253.00 C230.35,253.00 230.11,252.58 226.62,241.69 ZM 248.00 241.00 L 248.00 229.00 L 250.50 229.00 L 253.00 229.00 L 253.00 241.00 L 253.00 253.00 L 250.50 253.00 L 248.00 253.00 L 248.00 241.00 ZM 258.44 251.20 C258.75,250.21 260.51,244.92 262.34,239.45 C265.56,229.83 265.77,229.49 268.83,229.19 C270.58,229.01 272.00,229.04 272.00,229.24 C272.00,229.44 273.79,234.53 275.99,240.55 C278.18,246.57 279.98,251.84 279.99,252.25 C279.99,252.66 278.92,253.00 277.60,253.00 C275.83,253.00 274.92,252.21 274.15,250.00 C273.22,247.32 272.66,247.00 269.00,247.00 C265.34,247.00 264.78,247.32 263.85,250.00 C263.07,252.24 262.18,253.00 260.33,253.00 C258.41,253.00 257.99,252.60 258.44,251.20 ZM 272.00 242.37 C272.00,240.63 269.59,234.00 268.96,234.00 C268.56,234.00 267.99,235.01 267.70,236.25 C267.40,237.49 266.85,239.51 266.46,240.75 C265.84,242.75 266.11,243.00 268.88,243.00 C270.60,243.00 272.00,242.71 272.00,242.37 ZM 289.30 251.99 C284.15,249.91 282.15,238.62 286.05,233.66 C288.59,230.44 294.62,228.52 299.40,229.42 C303.14,230.12 303.54,230.61 302.13,232.82 C301.56,233.73 300.21,233.94 297.87,233.50 C295.23,233.01 293.83,233.35 291.72,235.00 C286.42,239.17 289.08,249.00 295.50,249.00 C297.61,249.00 298.00,248.53 298.00,246.00 C298.00,243.67 297.56,243.00 296.00,243.00 C294.67,243.00 294.00,242.33 294.00,241.00 C294.00,239.30 294.67,239.00 298.50,239.00 L 303.00 239.00 L 303.00 245.38 C303.00,251.71 302.98,251.75 299.88,252.38 C295.72,253.21 291.99,253.07 289.30,251.99 ZM 310.00 241.00 L 310.00 229.00 L 317.00 229.00 C323.33,229.00 324.00,229.19 324.00,231.00 C324.00,232.70 323.33,233.00 319.50,233.00 C315.37,233.00 315.00,233.20 315.00,235.50 C315.00,237.75 315.40,238.00 319.00,238.00 C322.33,238.00 323.00,238.33 323.00,240.00 C323.00,241.67 322.33,242.00 319.00,242.00 C315.10,242.00 315.00,242.08 315.00,245.50 C315.00,248.98 315.02,249.00 319.50,249.00 C323.33,249.00 324.00,249.30 324.00,251.00 C324.00,252.81 323.33,253.00 317.00,253.00 L 310.00 253.00 L 310.00 241.00 ZM 330.00 240.94 L 330.00 228.87 L 333.22 229.19 C336.09,229.47 336.98,230.42 341.47,238.00 L 346.50 246.50 L 346.79 237.75 C347.05,229.82 347.26,229.00 349.04,229.00 C350.88,229.00 351.00,229.75 351.00,241.00 L 351.00 253.00 L 347.75 252.99 C344.79,252.98 344.21,252.43 341.17,246.71 C339.33,243.26 336.98,239.32 335.94,237.97 L 334.04 235.50 L 334.02 244.25 C334.00,252.33 333.85,253.00 332.00,253.00 C330.11,253.00 330.00,252.33 330.00,240.94 ZM 358.75 252.31 C357.71,252.04 357.00,250.90 357.00,249.52 C357.00,247.33 357.21,247.25 360.41,248.23 C362.29,248.81 364.54,249.01 365.41,248.67 C368.05,247.66 367.28,244.36 364.11,243.04 C360.07,241.37 357.00,238.29 357.00,235.92 C357.00,233.12 361.41,229.00 364.39,229.00 C368.54,229.00 372.03,230.75 371.36,232.49 C370.93,233.62 369.91,233.90 367.63,233.50 C365.91,233.20 363.87,233.37 363.10,233.88 C361.38,235.01 362.33,237.82 364.73,238.69 C369.10,240.27 372.00,243.18 372.00,246.00 C372.00,251.15 365.74,254.14 358.75,252.31 ZM 147.88 219.25 C147.29,217.74 145.09,210.88 142.99,204.00 C140.90,197.12 135.99,181.27 132.09,168.76 C128.19,156.26 125.00,145.79 125.00,145.51 C125.00,145.23 129.65,145.00 135.34,145.00 L 145.68 145.00 L 148.96 155.75 C150.76,161.66 155.80,178.20 160.16,192.50 C164.53,206.80 168.33,219.29 168.61,220.25 C169.09,221.84 168.19,222.00 159.04,222.00 C148.96,222.00 148.95,222.00 147.88,219.25 ZM 195.90 219.27 C191.68,208.31 167.05,142.05 166.52,140.25 C165.87,138.00 165.88,138.00 178.18,138.01 L 190.50 138.01 L 202.91 171.76 C209.74,190.32 215.86,206.58 216.52,207.91 C217.61,210.10 218.18,208.85 222.93,193.91 C225.80,184.88 230.47,170.19 233.32,161.26 L 238.50 145.02 L 250.14 145.01 L 261.78 145.00 L 262.45 147.75 C262.81,149.26 266.72,161.75 271.12,175.50 C275.53,189.25 279.83,202.67 280.67,205.31 C281.51,207.96 282.39,209.94 282.62,209.72 C282.85,209.49 288.83,193.37 295.91,173.90 L 308.78 138.50 L 321.39 138.22 C328.33,138.07 334.00,138.15 334.00,138.41 C334.00,138.66 327.23,157.02 318.96,179.19 C310.69,201.36 303.73,220.06 303.50,220.75 C303.17,221.69 298.46,222.00 284.54,222.00 L 266.03 222.00 L 264.72 218.75 C264.00,216.96 260.53,206.39 257.01,195.25 C253.49,184.11 250.33,175.00 250.00,175.00 C249.66,175.00 246.02,185.46 241.91,198.25 L 234.43 221.50 L 215.70 221.77 L 196.97 222.04 L 195.90 219.27 ZM 331.22 220.75 C331.46,220.06 336.77,202.74 343.02,182.25 L 354.39 145.00 L 364.70 145.00 C370.36,145.00 375.00,145.29 375.00,145.64 C375.00,145.98 372.80,153.30 370.10,161.89 C367.41,170.47 363.54,182.90 361.50,189.50 C359.46,196.10 356.49,205.55 354.90,210.50 C353.30,215.45 352.00,220.06 352.00,220.75 C352.00,221.67 349.21,222.00 341.39,222.00 C333.34,222.00 330.89,221.70 331.22,220.75 ZM 253.90 134.75 C253.84,134.61 253.70,131.92 253.58,128.77 C253.24,120.06 251.54,119.00 237.91,119.00 C228.01,119.00 227.08,119.16 226.50,121.00 C225.63,123.73 223.38,123.51 221.41,120.50 C220.51,119.12 219.15,118.00 218.38,118.00 C217.62,118.00 217.00,117.42 217.00,116.70 C217.00,115.99 215.22,113.67 213.04,111.54 C208.36,106.97 208.66,105.40 213.80,107.60 C215.84,108.47 218.06,109.41 218.75,109.70 C219.59,110.05 220.00,109.20 220.00,107.11 C220.00,102.78 222.91,102.99 226.98,107.63 C229.99,111.06 230.40,111.22 234.75,110.62 C237.28,110.27 239.58,109.76 239.87,109.47 C240.84,108.49 236.52,105.11 225.50,98.21 C215.00,91.65 213.17,89.86 216.30,89.20 C217.07,89.04 227.69,92.75 239.88,97.43 L 262.06 105.96 L 269.78 104.35 C281.82,101.85 284.21,101.74 288.32,103.47 C296.73,107.02 288.59,112.32 269.98,115.42 C266.65,115.97 266.22,116.52 262.10,125.50 C258.86,132.57 257.27,135.00 255.87,135.00 C254.84,135.00 253.95,134.89 253.90,134.75 Z" fill="rgba(0,0,0,1)"/>
</g>
</svg>